<?xml version="1.0" standalone="no"?>
<!DOCTYPE svg PUBLIC "-//W3C//DTD SVG 20010904//EN"
 "http://www.w3.org/TR/2001/REC-SVG-20010904/DTD/svg10.dtd">
<svg version="1.0" xmlns="http://www.w3.org/2000/svg"
 width="700.000000pt" height="700.000000pt" viewBox="0 0 700.000000 700.000000"
 preserveAspectRatio="xMidYMid meet">
<metadata>
Created by potrace 1.11, written by Peter Selinger 2001-2013
</metadata>
<g transform="translate(0.000000,700.000000) scale(0.100000,-0.100000)"
fill="#000000" stroke="none">
<path d="M5615 5760 c-90 -13 -129 -19 -190 -30 -87 -16 -287 -67 -380 -96
-44 -14 -87 -27 -95 -29 -46 -10 -334 -120 -500 -192 -215 -92 -501 -239 -715
-368 -167 -101 -502 -332 -557 -384 -9 -9 -31 -27 -49 -41 -203 -154 -463
-412 -656 -651 -76 -95 -99 -118 -126 -123 -17 -3 -43 -8 -57 -11 -14 -3 -97
-19 -185 -36 -88 -17 -162 -32 -165 -34 -3 -2 -23 -6 -45 -9 -64 -10 -91 -15
-166 -31 -39 -8 -73 -15 -76 -15 -7 0 -833 -823 -830 -827 3 -2 764 -157 872
-177 99 -19 146 -30 150 -36 2 -3 5 -65 6 -137 3 -245 17 -281 188 -457 140
-143 184 -177 257 -200 68 -21 109 -25 254 -26 l125 0 33 -168 c19 -92 36
-176 38 -187 2 -11 11 -54 19 -95 8 -41 17 -86 20 -100 2 -14 16 -81 30 -150
14 -69 28 -136 30 -150 11 -51 35 -175 35 -179 0 -2 186 183 414 411 321 320
415 420 419 443 3 17 12 64 20 105 9 41 18 86 20 100 3 14 26 131 51 260 51
259 42 240 146 318 116 87 388 344 510 481 357 402 672 892 910 1416 54 119
58 128 85 195 14 36 30 74 35 85 59 131 206 603 226 724 4 21 11 56 19 91 2 8
18 112 21 140 2 14 6 60 10 102 l6 77 -54 -1 c-29 -1 -75 -5 -103 -8z m-1697
-1549 c99 -29 212 -123 258 -213 93 -183 59 -387 -87 -523 -278 -256 -717 -74
-733 305 -9 196 129 380 325 435 58 16 176 14 237 -4z"/>
<path d="M1055 2295 l-180 -175 0 -205 c0 -113 1 -205 4 -205 5 0 711 703 708
706 -1 1 -22 5 -47 8 -54 8 -119 17 -140 21 -9 2 -43 6 -75 10 -33 4 -67 9
-75 11 -10 2 -83 -61 -195 -171z"/>
<path d="M1251 1666 l-384 -384 -1 -197 c-1 -108 2 -201 6 -208 4 -7 71 -11
207 -11 l201 -1 385 387 c212 213 385 390 385 394 0 10 -396 404 -406 404 -5
-1 -182 -173 -393 -384z"/>
<path d="M2062 1237 c-194 -194 -352 -355 -352 -358 0 -2 92 -4 205 -4 l204 1
175 179 c132 136 174 185 171 200 -2 11 -7 43 -10 70 -3 28 -8 59 -10 70 -2
11 -7 43 -10 70 -8 63 -16 119 -19 122 -1 1 -160 -156 -354 -350z"/>
</g>
</svg>
